<?xml version="1.0" encoding="UTF-8"?>
<svg xmlns="http://www.w3.org/2000/svg" xmlns:xlink="http://www.w3.org/1999/xlink" width="595.28pt" height="841.89pt" viewBox="0 0 595.28 841.89" version="1.1">
<g id="surface1">
<path style=" stroke:none;fill-rule:nonzero;fill:rgb(92.89856%,10.998535%,14.099121%);fill-opacity:1;" d="M 400.617188 416.023438 C 460.847656 365.453125 362.898438 369.671875 304.078125 374.804688 C 304.078125 374.804688 439.117188 356.976563 423.957031 395.070313 C 423.957031 395.070313 420.753906 401.589844 411.554688 408.472656 L 400.617188 416.023438 "/>
<path style=" stroke:none;fill-rule:nonzero;fill:rgb(92.89856%,10.998535%,14.099121%);fill-opacity:1;" d="M 191.574219 395.96875 C 289.617188 366.851563 493.921875 353.242188 400.242188 416.320313 C 400.242188 416.320313 494.960938 375 418.011719 366.289063 C 297.453125 355.753906 191.574219 395.96875 191.574219 395.96875 "/>
<path style=" stroke:none;fill-rule:nonzero;fill:rgb(92.89856%,10.998535%,14.099121%);fill-opacity:1;" d="M 121.019531 425.472656 C 121.019531 425.472656 67.675781 448.261719 102.003906 469.386719 C 102.003906 469.386719 175.824219 473.539063 209.65625 469.226563 C 209.65625 469.226563 116.625 475.6875 105.457031 457.984375 C 98.167969 446.4375 117.273438 430.144531 121.019531 425.472656 "/>
<path style=" stroke:none;fill-rule:nonzero;fill:rgb(42.399597%,70.199585%,24.699402%);fill-opacity:1;" d="M 142.921875 443.199219 C 143.480469 444.554688 144.304688 445.636719 145.371094 446.457031 C 146.425781 447.289063 147.703125 447.894531 149.214844 448.292969 C 150.722656 448.703125 152.304688 448.90625 153.972656 448.90625 C 155.089844 448.90625 156.300781 448.816406 157.589844 448.617188 C 158.886719 448.421875 160.136719 448.078125 161.3125 447.535156 C 162.496094 447.003906 163.503906 446.269531 164.339844 445.328125 C 165.183594 444.394531 165.683594 443.199219 165.8125 441.757813 C 165.964844 440.230469 165.613281 438.964844 164.71875 438.003906 C 163.828125 437.042969 162.605469 436.246094 161.0625 435.613281 C 159.523438 434.957031 157.769531 434.398438 155.789063 433.929688 C 153.808594 433.429688 151.804688 432.902344 149.773438 432.316406 C 147.683594 431.773438 145.667969 431.128906 143.726563 430.367188 C 141.765625 429.589844 140.039063 428.582031 138.566406 427.339844 C 137.097656 426.132813 135.949219 424.589844 135.136719 422.730469 C 134.328125 420.902344 134.078125 418.664063 134.328125 416.042969 C 134.632813 413.128906 135.5 410.570313 136.988281 408.410156 C 138.460938 406.253906 140.289063 404.4375 142.453125 403 C 144.636719 401.558594 147.046875 400.492188 149.675781 399.796875 C 152.324219 399.109375 154.917969 398.761719 157.476563 398.761719 C 160.472656 398.761719 163.316406 399.09375 166.003906 399.757813 C 168.695313 400.425781 171.015625 401.496094 173.007813 403 C 174.996094 404.511719 176.503906 406.414063 177.527344 408.734375 C 178.550781 411.074219 178.890625 413.894531 178.550781 417.210938 L 166.375 417.210938 C 166.433594 415.488281 166.210938 414.066406 165.71875 412.964844 C 165.222656 411.835938 164.480469 410.957031 163.535156 410.320313 C 162.585938 409.671875 161.472656 409.210938 160.199219 408.953125 C 158.902344 408.683594 157.476563 408.546875 155.945313 408.546875 C 154.917969 408.546875 153.886719 408.65625 152.847656 408.855469 C 151.816406 409.074219 150.867188 409.453125 149.980469 409.992188 C 149.09375 410.535156 148.351563 411.1875 147.734375 412.003906 C 147.117188 412.796875 146.738281 413.816406 146.636719 415.019531 C 146.496094 416.160156 146.636719 417.042969 146.996094 417.761719 C 147.347656 418.441406 148.132813 419.085938 149.332031 419.6875 C 150.519531 420.265625 152.199219 420.84375 154.363281 421.4375 C 156.515625 422.023438 159.34375 422.777344 162.828125 423.671875 C 163.882813 423.886719 165.316406 424.289063 167.160156 424.835938 C 169 425.410156 170.800781 426.308594 172.539063 427.519531 C 174.285156 428.742188 175.75 430.394531 176.898438 432.449219 C 178.0625 434.515625 178.480469 437.128906 178.144531 440.339844 C 177.886719 442.945313 177.140625 445.363281 175.902344 447.625 C 174.648438 449.855469 172.941406 451.804688 170.78125 453.433594 C 168.617188 455.054688 166.003906 456.316406 162.945313 457.222656 C 159.886719 458.132813 156.417969 458.605469 152.515625 458.605469 C 149.367188 458.605469 146.332031 458.191406 143.453125 457.425781 C 140.5625 456.648438 138.058594 455.449219 135.949219 453.777344 C 133.855469 452.136719 132.265625 450.023438 131.195313 447.449219 C 130.09375 444.890625 129.773438 441.847656 130.171875 438.320313 L 142.363281 438.320313 C 142.167969 440.253906 142.347656 441.890625 142.921875 443.199219 "/>
<path style=" stroke:none;fill-rule:nonzero;fill:rgb(42.399597%,70.199585%,24.699402%);fill-opacity:1;" d="M 209.203125 438.035156 C 208.453125 438.265625 207.660156 438.484375 206.8125 438.640625 C 205.976563 438.785156 205.082031 438.9375 204.171875 439.03125 C 203.253906 439.152344 202.332031 439.285156 201.414063 439.445313 C 200.542969 439.597656 199.675781 439.808594 198.824219 440.070313 C 197.96875 440.34375 197.21875 440.714844 196.546875 441.160156 C 195.890625 441.621094 195.339844 442.179688 194.898438 442.898438 C 194.453125 443.570313 194.183594 444.464844 194.066406 445.523438 C 193.96875 446.53125 194.066406 447.394531 194.371094 448.089844 C 194.6875 448.789063 195.128906 449.335938 195.734375 449.738281 C 196.332031 450.128906 197.042969 450.421875 197.886719 450.582031 C 198.714844 450.75 199.597656 450.804688 200.515625 450.804688 C 202.734375 450.804688 204.535156 450.441406 205.828125 449.703125 C 207.132813 448.945313 208.136719 448.050781 208.820313 447.003906 C 209.511719 445.980469 209.980469 444.921875 210.226563 443.835938 C 210.453125 442.777344 210.613281 441.921875 210.671875 441.289063 L 211.09375 437.027344 C 210.597656 437.476563 209.941406 437.785156 209.203125 438.035156 M 188.324219 421.980469 C 189.679688 420.226563 191.320313 418.8125 193.234375 417.742188 C 195.167969 416.679688 197.28125 415.914063 199.617188 415.457031 C 201.933594 415.003906 204.246094 414.777344 206.539063 414.777344 C 208.613281 414.777344 210.703125 414.921875 212.832031 415.222656 C 214.9375 415.515625 216.828125 416.070313 218.488281 416.945313 C 220.183594 417.800781 221.5 418.980469 222.476563 420.496094 C 223.453125 422.011719 223.800781 424.035156 223.5625 426.535156 L 221.386719 448.078125 C 221.1875 449.941406 221.113281 451.71875 221.160156 453.4375 C 221.214844 455.160156 221.453125 456.4375 221.898438 457.269531 L 210.335938 457.3125 C 210.199219 456.675781 210.078125 456.011719 210.027344 455.335938 C 209.957031 454.675781 209.933594 453.992188 209.941406 453.289063 C 207.929688 455.160156 205.6875 456.457031 203.152344 457.210938 C 200.609375 457.941406 198.074219 458.316406 195.503906 458.316406 C 193.519531 458.316406 191.707031 458.074219 190.039063 457.605469 C 188.375 457.128906 186.949219 456.375 185.777344 455.359375 C 184.589844 454.335938 183.722656 453.070313 183.160156 451.515625 C 182.585938 449.976563 182.414063 448.121094 182.636719 445.996094 C 182.871094 443.644531 183.476563 441.710938 184.445313 440.179688 C 185.441406 438.675781 186.628906 437.445313 188.03125 436.539063 C 189.425781 435.648438 190.988281 434.976563 192.699219 434.515625 C 194.453125 434.0625 196.179688 433.699219 197.921875 433.429688 C 199.65625 433.171875 201.363281 432.949219 203.027344 432.796875 C 204.6875 432.621094 206.191406 432.394531 207.507813 432.066406 C 208.820313 431.746094 209.910156 431.296875 210.699219 430.667969 C 211.511719 430.050781 211.953125 429.171875 212.007813 427.992188 C 212.144531 426.777344 212.03125 425.796875 211.699219 425.066406 C 211.367188 424.355469 210.894531 423.796875 210.273438 423.394531 C 209.644531 422.988281 208.898438 422.730469 208.039063 422.589844 C 207.152344 422.449219 206.222656 422.382813 205.207031 422.382813 C 202.964844 422.382813 201.140625 422.859375 199.765625 423.839844 C 198.394531 424.765625 197.480469 426.378906 197.042969 428.621094 L 185.644531 428.621094 C 186.078125 425.972656 186.984375 423.742188 188.324219 421.980469 "/>
<path style=" stroke:none;fill-rule:nonzero;fill:rgb(42.399597%,70.199585%,24.699402%);fill-opacity:1;" d="M 228.773438 423.511719 L 229.53125 415.894531 L 236.355469 415.894531 L 236.679688 412.683594 C 237.042969 408.992188 238.503906 405.957031 241.027344 403.632813 C 243.566406 401.273438 247.171875 400.089844 251.816406 400.089844 C 252.835938 400.089844 253.839844 400.128906 254.832031 400.214844 C 255.847656 400.273438 256.839844 400.363281 257.800781 400.40625 L 256.9375 408.917969 C 255.625 408.734375 254.234375 408.65625 252.792969 408.65625 C 251.234375 408.65625 250.105469 409.023438 249.359375 409.753906 C 248.621094 410.46875 248.164063 411.691406 247.996094 413.40625 L 247.746094 415.894531 L 255.59375 415.894531 L 254.820313 423.511719 L 246.984375 423.511719 L 243.578125 457.3125 L 232.1875 457.3125 L 235.585938 423.511719 L 228.773438 423.511719 "/>
<path style=" stroke:none;fill-rule:nonzero;fill:rgb(42.399597%,70.199585%,24.699402%);fill-opacity:1;" d="M 282.4375 438.035156 C 281.695313 438.265625 280.890625 438.484375 280.039063 438.640625 C 279.21875 438.785156 278.324219 438.929688 277.410156 439.03125 C 276.492188 439.152344 275.578125 439.285156 274.648438 439.445313 C 273.785156 439.597656 272.921875 439.808594 272.0625 440.070313 C 271.210938 440.34375 270.449219 440.714844 269.792969 441.160156 C 269.125 441.621094 268.574219 442.179688 268.136719 442.898438 C 267.675781 443.570313 267.40625 444.464844 267.296875 445.523438 C 267.207031 446.53125 267.296875 447.394531 267.605469 448.089844 C 267.921875 448.789063 268.363281 449.335938 268.972656 449.738281 C 269.570313 450.128906 270.285156 450.421875 271.125 450.582031 C 271.960938 450.75 272.832031 450.804688 273.742188 450.804688 C 275.992188 450.804688 277.746094 450.441406 279.066406 449.703125 C 280.371094 448.945313 281.378906 448.050781 282.054688 447.003906 C 282.75 445.980469 283.214844 444.921875 283.445313 443.835938 C 283.695313 442.777344 283.847656 441.921875 283.914063 441.28125 L 284.347656 437.027344 C 283.835938 437.476563 283.167969 437.785156 282.4375 438.035156 M 261.554688 421.980469 C 262.925781 420.222656 264.558594 418.8125 266.496094 417.742188 C 268.410156 416.679688 270.519531 415.914063 272.855469 415.457031 C 275.164063 415.003906 277.449219 414.777344 279.769531 414.777344 C 281.859375 414.777344 283.957031 414.921875 286.042969 415.222656 C 288.171875 415.515625 290.058594 416.070313 291.746094 416.945313 C 293.421875 417.800781 294.742188 418.980469 295.714844 420.496094 C 296.691406 422.011719 297.050781 424.035156 296.789063 426.535156 L 294.625 448.078125 C 294.4375 449.941406 294.367188 451.71875 294.410156 453.4375 C 294.453125 455.160156 294.699219 456.4375 295.136719 457.269531 L 283.585938 457.3125 C 283.445313 456.675781 283.332031 456.011719 283.257813 455.335938 C 283.1875 454.675781 283.167969 453.992188 283.1875 453.289063 C 281.167969 455.160156 278.925781 456.457031 276.386719 457.210938 C 273.851563 457.941406 271.3125 458.316406 268.75 458.316406 C 266.753906 458.316406 264.929688 458.074219 263.277344 457.605469 C 261.625 457.128906 260.199219 456.375 259.015625 455.359375 C 257.851563 454.335938 256.96875 453.070313 256.398438 451.515625 C 255.828125 449.976563 255.667969 448.121094 255.871094 445.996094 C 256.113281 443.644531 256.710938 441.710938 257.695313 440.179688 C 258.667969 438.675781 259.871094 437.445313 261.265625 436.539063 C 262.675781 435.648438 264.242188 434.976563 265.960938 434.515625 C 267.675781 434.0625 269.425781 433.699219 271.167969 433.429688 C 272.894531 433.171875 274.601563 432.949219 276.273438 432.796875 C 277.960938 432.621094 279.4375 432.394531 280.777344 432.066406 C 282.0625 431.746094 283.132813 431.296875 283.933594 430.667969 C 284.746094 430.050781 285.183594 429.171875 285.242188 427.992188 C 285.378906 426.777344 285.277344 425.796875 284.953125 425.066406 C 284.625 424.355469 284.140625 423.796875 283.507813 423.394531 C 282.875 422.988281 282.136719 422.730469 281.265625 422.589844 C 280.394531 422.449219 279.453125 422.382813 278.429688 422.382813 C 276.207031 422.382813 274.386719 422.859375 273.015625 423.839844 C 271.644531 424.765625 270.722656 426.378906 270.285156 428.621094 L 258.898438 428.621094 C 259.320313 425.972656 260.214844 423.742188 261.554688 421.980469 "/>
<path style=" stroke:none;fill-rule:nonzero;fill:rgb(42.399597%,70.199585%,24.699402%);fill-opacity:1;" d="M 317.96875 415.914063 L 317.214844 423.609375 L 317.375 423.609375 C 318.035156 422.3125 318.894531 421.113281 319.894531 420.027344 C 320.921875 418.925781 322.0625 418 323.316406 417.226563 C 324.566406 416.445313 325.878906 415.859375 327.261719 415.425781 C 328.636719 414.988281 330.058594 414.777344 331.503906 414.777344 C 332.242188 414.777344 333.054688 414.910156 333.925781 415.164063 L 332.867188 425.765625 C 332.339844 425.667969 331.726563 425.570313 330.96875 425.496094 C 330.230469 425.410156 329.523438 425.367188 328.832031 425.367188 C 326.742188 425.367188 324.9375 425.714844 323.433594 426.414063 C 321.917969 427.097656 320.667969 428.050781 319.664063 429.265625 C 318.65625 430.457031 317.886719 431.855469 317.355469 433.457031 C 316.832031 435.0625 316.453125 436.785156 316.265625 438.648438 L 314.394531 457.3125 L 303.007813 457.3125 L 307.175781 415.914063 L 317.96875 415.914063 "/>
<path style=" stroke:none;fill-rule:nonzero;fill:rgb(42.399597%,70.199585%,24.699402%);fill-opacity:1;" d="M 350.371094 415.894531 L 346.207031 457.3125 L 334.816406 457.3125 L 338.988281 415.894531 L 350.371094 415.894531 "/>
<path style=" stroke:none;fill-rule:nonzero;fill:rgb(42.399597%,70.199585%,24.699402%);fill-opacity:1;" d="M 378.535156 423.019531 C 376.714844 423.019531 375.140625 423.441406 373.835938 424.269531 C 372.527344 425.105469 371.433594 426.167969 370.511719 427.472656 C 369.605469 428.765625 368.921875 430.226563 368.4375 431.792969 C 367.96875 433.371094 367.636719 434.933594 367.480469 436.484375 C 367.332031 437.984375 367.355469 439.496094 367.503906 441.050781 C 367.660156 442.59375 368.058594 444 368.648438 445.253906 C 369.257813 446.503906 370.105469 447.535156 371.257813 448.320313 C 372.429688 449.136719 373.855469 449.542969 375.628906 449.542969 C 378.351563 449.542969 380.523438 448.769531 382.148438 447.265625 C 383.761719 445.726563 384.902344 443.699219 385.53125 441.117188 L 396.519531 441.117188 C 395.203125 446.628906 392.636719 450.8125 388.824219 453.71875 C 385.011719 456.632813 380.351563 458.058594 374.84375 458.058594 C 371.757813 458.058594 368.972656 457.53125 366.480469 456.484375 C 363.988281 455.449219 361.925781 453.992188 360.304688 452.136719 C 358.664063 450.257813 357.476563 448.015625 356.726563 445.421875 C 355.957031 442.839844 355.734375 439.992188 356.058594 436.894531 C 356.378906 433.6875 357.136719 430.703125 358.351563 427.972656 C 359.574219 425.207031 361.1875 422.835938 363.203125 420.828125 C 365.210938 418.839844 367.597656 417.253906 370.332031 416.136719 C 373.054688 415.003906 376.105469 414.457031 379.476563 414.457031 C 381.925781 414.457031 384.261719 414.777344 386.472656 415.421875 C 388.660156 416.042969 390.601563 417.027344 392.261719 418.34375 C 393.925781 419.648438 395.214844 421.277344 396.132813 423.238281 C 397.054688 425.195313 397.472656 427.488281 397.371094 430.167969 L 386.230469 430.167969 C 385.957031 425.410156 383.398438 423.019531 378.535156 423.019531 "/>
<path style=" stroke:none;fill-rule:nonzero;fill:rgb(42.399597%,70.199585%,24.699402%);fill-opacity:1;" d="M 462.265625 415.582031 L 461.695313 421.203125 L 461.863281 421.203125 C 463.570313 419.042969 465.539063 417.398438 467.769531 416.21875 C 469.988281 415.03125 472.484375 414.457031 475.199219 414.457031 C 477.816406 414.457031 480.167969 414.964844 482.222656 415.980469 C 484.28125 416.996094 485.746094 418.796875 486.625 421.359375 C 488.027344 419.53125 489.851563 417.933594 492.09375 416.550781 C 494.34375 415.148438 496.921875 414.457031 499.789063 414.457031 C 501.976563 414.457031 503.972656 414.714844 505.796875 415.261719 C 507.59375 415.777344 509.113281 416.652344 510.339844 417.820313 C 511.550781 418.984375 512.449219 420.53125 513.003906 422.417969 C 513.558594 424.316406 513.683594 426.597656 513.4375 429.277344 L 510.640625 456.988281 L 499.246094 456.988281 L 501.609375 433.554688 C 501.757813 432.15625 501.824219 430.832031 501.847656 429.621094 C 501.851563 428.382813 501.664063 427.3125 501.28125 426.414063 C 500.902344 425.507813 500.273438 424.765625 499.390625 424.238281 C 498.515625 423.714844 497.265625 423.453125 495.671875 423.453125 C 494.082031 423.453125 492.753906 423.742188 491.714844 424.375 C 490.65625 424.988281 489.8125 425.796875 489.15625 426.777344 C 488.5 427.75 488.007813 428.882813 487.695313 430.144531 C 487.378906 431.378906 487.15625 432.660156 487.035156 433.929688 L 484.726563 456.988281 L 473.320313 456.988281 L 475.652344 433.769531 C 475.789063 432.546875 475.867188 431.332031 475.949219 430.144531 C 476.007813 428.933594 475.898438 427.835938 475.59375 426.800781 C 475.292969 425.796875 474.703125 424.988281 473.855469 424.375 C 472.964844 423.742188 471.617188 423.453125 469.800781 423.453125 C 469.269531 423.453125 468.546875 423.570313 467.65625 423.8125 C 466.734375 424.058594 465.824219 424.503906 464.941406 425.164063 C 464.046875 425.84375 463.238281 426.800781 462.53125 428.046875 C 461.816406 429.3125 461.359375 430.933594 461.152344 432.980469 L 458.742188 456.988281 L 447.359375 456.988281 L 451.527344 415.582031 L 462.265625 415.582031 "/>
<path style=" stroke:none;fill-rule:nonzero;fill:rgb(42.399597%,70.199585%,24.699402%);fill-opacity:1;" d="M 413.390625 444.304688 C 413.847656 445.378906 414.425781 446.339844 415.222656 447.175781 C 415.988281 447.980469 416.910156 448.644531 417.972656 449.136719 C 419.027344 449.640625 420.238281 449.855469 421.582031 449.855469 C 423.734375 449.855469 425.515625 449.316406 426.953125 448.199219 C 428.375 447.089844 429.519531 445.707031 430.367188 444.019531 C 431.203125 442.359375 431.777344 440.542969 432.082031 438.589844 C 432.386719 436.628906 432.457031 434.789063 432.300781 433.105469 C 432.058594 430.414063 431.242188 428.273438 429.8125 426.695313 C 428.40625 425.09375 426.171875 424.300781 423.117188 424.300781 C 421.011719 424.300781 419.269531 424.835938 417.8125 425.953125 C 416.390625 427.0625 415.265625 428.433594 414.457031 430.074219 C 413.648438 431.734375 413.082031 433.527344 412.765625 435.449219 C 412.460938 437.382813 412.390625 439.21875 412.53125 440.902344 C 412.652344 442.078125 412.941406 443.226563 413.390625 444.304688 Z M 401.792969 431.234375 C 402.617188 428.222656 403.957031 425.582031 405.832031 423.3125 C 407.6875 421.027344 410.058594 419.226563 412.90625 417.925781 C 415.746094 416.59375 419.027344 415.945313 422.769531 415.945313 C 425.621094 415.945313 428.28125 416.289063 430.738281 416.992188 C 433.210938 417.691406 435.371094 418.726563 437.226563 420.128906 C 439.082031 421.519531 440.574219 423.265625 441.707031 425.410156 C 442.851563 427.515625 443.5625 430.011719 443.820313 432.902344 C 444.136719 436.417969 443.894531 439.707031 443.0625 442.777344 C 442.238281 445.851563 440.863281 448.515625 438.976563 450.804688 C 437.097656 453.070313 434.710938 454.851563 431.832031 456.128906 C 428.949219 457.425781 425.609375 458.074219 421.769531 458.074219 C 415.949219 458.074219 411.152344 456.648438 407.414063 453.777344 C 403.671875 450.921875 401.535156 446.617188 401.015625 440.875 C 400.691406 437.480469 400.953125 434.253906 401.792969 431.234375 "/>
<path style=" stroke:none;fill-rule:nonzero;fill:rgb(42.399597%,70.199585%,24.699402%);fill-opacity:1;" d="M 339.550781 410.820313 L 340.488281 401.460938 L 351.890625 401.460938 L 350.9375 410.820313 L 339.550781 410.820313 "/>
<path style=" stroke:none;fill-rule:nonzero;fill:rgb(92.89856%,10.998535%,14.099121%);fill-opacity:1;" d="M 209.453125 469.402344 C 209.453125 469.402344 103.785156 476.984375 100.011719 454.757813 C 98.109375 443.523438 116.339844 430.074219 121.019531 425.472656 C 121.019531 425.472656 83.289063 441.789063 87.347656 461.0625 C 92.621094 486.121094 177.566406 480.09375 209.453125 469.402344 "/>
</g>
</svg>
